# xmcd CD database file
#
# Track frame offsets:
#	150
#	23514
#	34271
#	48605
#	62485
#	90109
#	102640
#	114730
#	123265
#	138688
#	143539
#	158387
#	183036
#	203626
#	221105
#	243844
#
# Disc length: 3337 seconds
#
# Revision: 2
# Processed by: cddbd v1.5.2PL0 Copyright (c) Steve Scherf et al.
# Submitted via: CDex 1.70beta2
#
DISCID=d10d0710
DTITLE=Vince Guaraldi - A Charlie Brown Christmas (Remastered)
DYEAR=2006
DGENRE=Jazz
TTITLE0=O Tannebaum
TTITLE1=What Child Is This
TTITLE2=My Little Drum
TTITLE3=Linus and Lucy
TTITLE4=Christmas Time Is Here (instrumental)
TTITLE5=Christmas Time Is Here (vocal)
TTITLE6=Skating
TTITLE7=Hark the Herald Angels Sing
TTITLE8=Christmas Is Coming
TTITLE9=Fur Elise
TTITLE10=The Christmas Song
TTITLE11=Greensleeves
TTITLE12=Christmas Is Coming (alt. take 1)
TTITLE13=The Christmas Song (alt. take 3)
TTITLE14=Greensleeves (alt. take 6)
TTITLE15=Christmas Time Is Here (alt. vocal take)
EXTD=YEAR: 2006
EXTT0=
EXTT1=
EXTT2=
EXTT3=
EXTT4=
EXTT5=
EXTT6=
EXTT7=
EXTT8=
EXTT9=
EXTT10=
EXTT11=
EXTT12=
EXTT13=
EXTT14=
EXTT15=
PLAYORDER=
